<svg xmlns="http://www.w3.org/2000/svg" viewBox="0 0 24 16" role="img">
  <title>Flag of the United States</title>
  <rect width="24" height="16" fill="#B22234" />
  <g fill="#fff">
    <rect y="1.231" width="24" height="1.231" />
    <rect y="3.692" width="24" height="1.231" />
    <rect y="6.154" width="24" height="1.231" />
    <rect y="8.615" width="24" height="1.231" />
    <rect y="11.077" width="24" height="1.231" />
    <rect y="13.538" width="24" height="1.231" />
  </g>
  <rect width="9.6" height="8.615" fill="#3C3B6E" />
  <g fill="#fff">
    <polygon points="1.500,0.500 1.618,0.738 1.880,0.776 1.690,0.962 1.735,1.224 1.500,1.100 1.265,1.224 1.310,0.962 1.120,0.776 1.382,0.738" />
    <polygon points="3.300,0.500 3.418,0.738 3.680,0.776 3.490,0.962 3.535,1.224 3.300,1.100 3.065,1.224 3.110,0.962 2.920,0.776 3.182,0.738" />
    <polygon points="5.100,0.500 5.218,0.738 5.480,0.776 5.290,0.962 5.335,1.224 5.100,1.100 4.865,1.224 4.910,0.962 4.720,0.776 4.982,0.738" />
    <polygon points="1.500,2.100 1.618,2.338 1.880,2.376 1.690,2.562 1.735,2.824 1.500,2.700 1.265,2.824 1.310,2.562 1.120,2.376 1.382,2.338" />
    <polygon points="3.300,2.100 3.418,2.338 3.680,2.376 3.490,2.562 3.535,2.824 3.300,2.700 3.065,2.824 3.110,2.562 2.920,2.376 3.182,2.338" />
    <polygon points="5.100,2.100 5.218,2.338 5.480,2.376 5.290,2.562 5.335,2.824 5.100,2.700 4.865,2.824 4.910,2.562 4.720,2.376 4.982,2.338" />
    <polygon points="1.500,3.700 1.618,3.938 1.880,3.976 1.690,4.162 1.735,4.424 1.500,4.300 1.265,4.424 1.310,4.162 1.120,3.976 1.382,3.938" />
    <polygon points="3.300,3.700 3.418,3.938 3.680,3.976 3.490,4.162 3.535,4.424 3.300,4.300 3.065,4.424 3.110,4.162 2.920,3.976 3.182,3.938" />
    <polygon points="5.100,3.700 5.218,3.938 5.480,3.976 5.290,4.162 5.335,4.424 5.100,4.300 4.865,4.424 4.910,4.162 4.720,3.976 4.982,3.938" />
  </g>
</svg>
