<svg xmlns="http://www.w3.org/2000/svg" viewBox="0 0 24 16" role="img">
  <title>Flag of Australia</title>
  <rect width="24" height="16" fill="#012169" />
  <defs>
    <clipPath id="union-jack">
      <rect width="12" height="8" />
    </clipPath>
  </defs>
  <g clip-path="url(#union-jack)">
    <rect width="12" height="8" fill="#012169" />
    <path fill="#fff" d="M0 3h12v2H0zM5 0h2v8H5z" />
    <path fill="#fff" d="M0 0l12 8h-2L0 1.5zM12 0v1.5L2 8H0l12-8z" />
    <path fill="#C8102E" d="M0 3.6h12v0.8H0zM5.6 0h0.8v8h-0.8z" />
    <path fill="#C8102E" d="M0 0l5.5 3.6h-1.3L0 0.9zM6.8 4.4L12 8h-1.3L5.5 4.4z" />
    <path fill="#C8102E" d="M12 0L6.5 3.6h1.3L12 0.9zM5.2 4.4L0 8h1.3l4.7-3.2z" />
  </g>
  <polygon fill="#fff" points="4.000,10.600 4.411,11.434 5.331,11.567 4.666,12.216 4.823,13.133 4.000,12.700 3.177,13.133 3.334,12.216 2.669,11.567 3.589,11.434" />
  <polygon fill="#fff" points="18.000,9.800 18.353,10.515 19.141,10.629 18.571,11.185 18.705,11.971 18.000,11.600 17.295,11.971 17.429,11.185 16.859,10.629 17.647,10.515" />
  <polygon fill="#fff" points="19.000,3.200 19.235,3.676 19.761,3.753 19.380,4.124 19.470,4.647 19.000,4.400 18.530,4.647 18.620,4.124 18.239,3.753 18.765,3.676" />
  <polygon fill="#fff" points="17.000,4.200 17.235,4.676 17.761,4.753 17.380,5.124 17.470,5.647 17.000,5.400 16.530,5.647 16.620,5.124 16.239,4.753 16.765,4.676" />
  <polygon fill="#fff" points="20.000,5.200 20.235,5.676 20.761,5.753 20.380,6.124 20.470,6.647 20.000,6.400 19.530,6.647 19.620,6.124 19.239,5.753 19.765,5.676" />
  <polygon fill="#fff" points="16.500,7.200 16.735,7.676 17.261,7.753 16.880,8.124 16.970,8.647 16.500,8.400 16.030,8.647 16.120,8.124 15.739,7.753 16.265,7.676" />
  <polygon fill="#fff" points="12.500,11.600 12.765,12.136 13.356,12.222 12.928,12.639 13.029,13.228 12.500,12.950 11.971,13.228 12.072,12.639 11.644,12.222 12.235,12.136" />
</svg>
